<svg width="275" height="275" viewBox="0 0 275 275" fill="none" xmlns="http://www.w3.org/2000/svg">
<g opacity="0.03">
<path d="M160.736 135.847L241.126 89.4343C247.935 104.056 251.764 120.335 251.764 137.501C251.764 153.645 248.379 169.008 242.312 182.945L160.736 135.847ZM137.5 251.764C98.9342 251.764 64.7951 232.54 44.0932 203.191L137.5 149.263L230.907 203.191C210.205 232.54 176.066 251.764 137.5 251.764ZM32.6888 182.945C26.6211 169.008 23.2359 153.645 23.2359 137.501C23.2359 120.335 27.0645 104.056 33.8738 89.4343L114.264 135.847L32.6888 182.945ZM125.882 23.8236V115.724L45.7616 69.4656C64.4265 44.3628 93.1289 27.1455 125.882 23.8236ZM149.118 23.8236C181.871 27.1455 210.574 44.3628 229.239 69.4656L149.118 115.724V23.8236ZM137.5 0C61.6822 0 0 61.6824 0 137.501C0 213.318 61.6822 275 137.5 275C213.318 275 275 213.318 275 137.501C275 61.6824 213.318 0 137.5 0Z" fill="black"/>
<path d="M109.791 204.942C109.791 219.958 121.962 232.129 136.976 232.129C151.991 232.129 164.163 219.958 164.163 204.942C164.163 189.928 151.991 177.757 136.976 177.757C121.962 177.757 109.791 189.928 109.791 204.942Z" fill="black"/>
</g>
</svg>
