<svg width="199" height="42" viewBox="0 0 199 42" fill="none" xmlns="http://www.w3.org/2000/svg">
<g clip-path="url(#clip0_112_295)">
<path d="M24.5496 20.7468L36.8278 13.6581C37.8679 15.8913 38.4525 18.3777 38.4525 20.9994C38.4525 23.4652 37.9357 25.8116 37.0088 27.9403L24.5496 20.7468ZM21.0008 38.4512C15.1104 38.4512 9.89635 35.515 6.73445 31.0324L21.0008 22.7959L35.267 31.0324C32.1052 35.515 26.891 38.4512 21.0008 38.4512ZM4.99258 27.9403C4.0659 25.8116 3.54884 23.4652 3.54884 20.9994C3.54884 18.3777 4.13368 15.8913 5.17365 13.6581L17.4519 20.7468L4.99258 27.9403ZM19.2263 3.63741V17.6735L6.98924 10.6083C9.84001 6.77424 14.2238 4.14465 19.2263 3.63741ZM22.7752 3.63741C27.7777 4.14465 32.1616 6.77424 35.0123 10.6083L22.7752 17.6735V3.63741ZM21.0008 -0.00132751C9.42086 -0.00132751 0 9.41953 0 20.9994C0 32.5791 9.42086 42 21.0008 42C32.5807 42 42.0016 32.5791 42.0016 20.9994C42.0016 9.41953 32.5807 -0.00132751 21.0008 -0.00132751Z" fill="white"/>
<path d="M16.8564 31.3646C16.8564 33.6538 18.7118 35.5093 21.0006 35.5093C23.2895 35.5093 25.1451 33.6538 25.1451 31.3646C25.1451 29.0759 23.2895 27.2205 21.0006 27.2205C18.7118 27.2205 16.8564 29.0759 16.8564 31.3646Z" fill="white"/>
<path d="M58.8934 16.9052H55.4681V13.9585H58.8683C60.3794 13.9585 61.0343 14.5882 61.0343 15.4446C61.0343 16.3009 60.3794 16.9052 58.8934 16.9052ZM55.4681 7.86368H58.4905C59.9512 7.86368 60.5306 8.51835 60.5306 9.34947C60.5306 10.1053 59.9512 10.7599 58.4905 10.7599H55.4681V7.86368ZM62.1425 12.0948C63.83 11.8178 64.9634 10.6088 64.9634 8.84569C64.9634 6.17618 63.1248 4.46339 59.0445 4.46339H51.3125V20.3306H59.5736C63.2759 20.3306 65.4419 18.7187 65.4419 15.9736C65.4419 13.7067 64.0062 12.4727 62.1425 12.0948Z" fill="white"/>
<path d="M74.9702 16.8549C72.628 16.8549 71.1419 15.0918 71.1419 12.397C71.1419 9.7019 72.628 7.93882 74.9702 7.93882C77.3123 7.93882 78.7987 9.7019 78.7987 12.397C78.7987 15.0918 77.3123 16.8549 74.9702 16.8549ZM74.9702 4.16116C70.3611 4.16116 66.7344 7.51089 66.7344 12.397C66.7344 17.283 70.3611 20.6328 74.9702 20.6328C79.5792 20.6328 83.206 17.283 83.206 12.397C83.206 7.51089 79.5792 4.16116 74.9702 4.16116Z" fill="white"/>
<path d="M89.5581 4.46329H85.2764V20.3306H97.416V16.8044H89.5581V4.46329Z" fill="white"/>
<path d="M105 16.9556H103.313V7.83829H105C107.771 7.83829 109.408 9.50052 109.408 12.3715C109.408 15.293 107.771 16.9556 105 16.9556ZM105.303 4.46329H99.0312V20.3306H105.303C110.566 20.3306 113.815 17.3588 113.815 12.3968C113.815 7.43511 110.566 4.46329 105.303 4.46329Z" fill="white"/>
<path d="M131.612 10.6592L128.615 10.1301C127.633 9.95392 127.028 9.67689 127.028 8.94664C127.028 8.06496 127.834 7.51089 129.245 7.51089C130.882 7.51089 132.066 8.26668 132.191 9.90362L136.121 9.82805C136.045 6.30214 133.677 4.16116 129.295 4.16116C125.341 4.16116 122.822 6.10042 122.822 9.32427C122.822 12.0946 124.636 13.5557 127.23 14.0339L130.126 14.5379C131.335 14.7647 132.267 14.9156 132.267 15.8475C132.267 16.7293 131.31 17.2577 129.824 17.2577C128.061 17.2577 126.525 16.5778 126.373 14.5882L122.444 14.7141C122.444 18.5424 125.517 20.6328 129.824 20.6328C133.526 20.6328 136.448 18.9452 136.448 15.5705C136.448 12.9763 134.937 11.2385 131.612 10.6592Z" fill="white"/>
<path d="M145.507 11.9437H142.989V7.88875H145.507C147.422 7.88875 148.152 8.59399 148.152 9.92887C148.152 11.2635 147.422 11.9437 145.507 11.9437ZM145.709 4.46345H138.732V20.3306H142.989V15.3688H145.709C149.865 15.3688 152.282 13.4295 152.282 9.90333C152.282 6.40271 149.865 4.46345 145.709 4.46345Z" fill="white"/>
<path d="M153.897 20.3306H158.179V4.46345H153.897V20.3306Z" fill="white"/>
<path d="M168.271 11.7675H165.224V7.88875H168.271C170.084 7.88875 170.991 8.56871 170.991 9.8533C170.991 11.3141 170.084 11.7675 168.271 11.7675ZM171.797 13.5807C173.737 13.3286 175.172 11.8176 175.172 9.50068C175.172 6.40271 173.132 4.46345 169.027 4.46345H161.018V20.3306H165.224V15.0667H168.07C169.505 15.0667 170.286 15.4695 170.412 17.2831C170.538 18.9204 170.739 19.9024 171.067 20.3306H175.399C174.87 19.7512 174.794 19.046 174.568 16.6785C174.391 14.84 173.434 13.908 171.797 13.5807Z" fill="white"/>
<path d="M177.53 20.3306H181.812V4.46345H177.53V20.3306Z" fill="white"/>
<path d="M183.396 4.46345V7.98935H188.836V20.3306H193.092V7.98935H198.608V4.46345H183.396Z" fill="white"/>
<path d="M51.2646 34.5038V33.5165H53.754V34.4182C53.754 35.1335 54.0829 35.4912 54.7554 35.4912C55.4279 35.4912 55.7428 35.1335 55.7428 34.4182V27.3216H58.4181V34.4895C58.4181 36.5211 57.0734 37.7944 54.8414 37.7944C52.6094 37.7944 51.2646 36.5211 51.2646 34.5038Z" fill="white"/>
<path d="M60.1914 27.3216H62.8668V37.5083H60.1914V27.3216Z" fill="white"/>
<path d="M64.6553 34.0171V27.3215H67.3306V34.0315C67.3306 35.1045 67.8887 35.6482 69.033 35.6482C70.1777 35.6482 70.7213 35.1045 70.7213 34.0315V27.3215H73.397V34.0171C73.397 36.4924 71.8375 37.8374 69.0189 37.8374C66.2148 37.8374 64.6553 36.4924 64.6553 34.0171Z" fill="white"/>
<path d="M78.6602 34.5038V33.5165H81.1498V34.4182C81.1498 35.1335 81.4787 35.4912 82.1512 35.4912C82.8234 35.4912 83.1383 35.1335 83.1383 34.4182V27.3216H85.8139V34.4895C85.8139 36.5211 84.4689 37.7944 82.2369 37.7944C80.0052 37.7944 78.6602 36.5211 78.6602 34.5038Z" fill="white"/>
<path d="M87.5869 27.3216H90.2623V37.5083H87.5869V27.3216Z" fill="white"/>
<path d="M100.105 29.6395H97.1291V37.5083H94.4535V29.6395H91.4492V27.3216H100.105V29.6395Z" fill="white"/>
<path d="M100.834 34.2319H103.481C103.553 35.2049 104.196 35.6913 105.37 35.6913C106.371 35.6913 106.929 35.3337 106.929 34.6753C106.929 34.0888 106.486 33.8455 105.713 33.6595L103.71 33.1877C102.093 32.8013 101.077 31.8855 101.077 30.2829C101.077 28.552 102.265 27.0784 105.126 27.0784C107.716 27.0784 109.204 28.28 109.318 30.3401H106.729C106.614 29.5679 106.056 29.1385 105.112 29.1385C104.253 29.1385 103.753 29.5106 103.753 30.0543C103.753 30.4833 104.053 30.7694 104.726 30.9413L106.814 31.4277C108.617 31.8426 109.648 32.83 109.648 34.4893C109.648 36.5924 108.002 37.8374 105.312 37.8374C102.608 37.8374 100.948 36.5637 100.834 34.2319Z" fill="white"/>
<path d="M111.076 34.0171V27.3215H113.752V34.0315C113.752 35.1045 114.31 35.6482 115.454 35.6482C116.599 35.6482 117.143 35.1045 117.143 34.0315V27.3215H119.818V34.0171C119.818 36.4924 118.259 37.8374 115.44 37.8374C112.636 37.8374 111.076 36.4924 111.076 34.0171Z" fill="white"/>
<path d="M130.833 33.8028L130.375 32.4149L129.746 30.283L129.131 32.4149L128.673 33.8028H130.833ZM131.463 35.7631H128.029L127.457 37.5083H124.652L128.372 27.3216H131.191L134.853 37.5083H132.035L131.463 35.7631Z" fill="white"/>
<path d="M135.353 32.4436C135.353 29.1385 137.441 27.0784 140.274 27.0784C142.835 27.0784 144.609 28.552 144.852 30.9413H142.248C142.076 29.8826 141.404 29.2818 140.346 29.2818C138.872 29.2818 138.028 30.4548 138.028 32.4292C138.028 34.4893 138.872 35.6482 140.346 35.6482C141.505 35.6482 142.105 34.9329 142.248 33.8599H144.852C144.666 36.3636 142.864 37.8374 140.26 37.8374C137.427 37.8374 135.353 35.7486 135.353 32.4436Z" fill="white"/>
<path d="M151.733 33.8028L151.276 32.4149L150.646 30.283L150.031 32.4149L149.573 33.8028H151.733ZM152.363 35.7631H148.929L148.357 37.5083H145.553L149.272 27.3216H152.091L155.754 37.5083H152.935L152.363 35.7631Z" fill="white"/>
<path d="M163.407 32.4149C163.407 30.4977 162.649 29.525 160.818 29.525H159.601V35.2622H160.961C162.649 35.2622 163.407 34.3037 163.407 32.4149ZM166.082 32.4149C166.082 35.4627 164.609 37.5083 161.418 37.5083H156.926V27.3216H161.218C164.437 27.3216 166.082 29.1959 166.082 32.4149Z" fill="white"/>
<path d="M175.681 35.2479V37.5083H167.483V27.3216H175.538V29.5395H170.159V31.2132H174.88V33.3876H170.159V35.2479H175.681Z" fill="white"/>
<path d="M187.769 27.3216V37.5083H185.322V33.4592L185.523 29.7111L184.893 32.5153L183.591 37.5083H181.359L180.043 32.4724L179.428 29.7253L179.628 33.4592V37.5083H177.139V27.3216H180.758L182.018 32.1433L182.447 34.2177L182.89 32.1433L184.12 27.3216H187.769Z" fill="white"/>
<path d="M198.656 27.3216L195.108 33.674V37.5083H192.432V33.674L188.87 27.3216H191.846L193.263 30.2545L193.763 31.5423L194.278 30.2545L195.738 27.3216H198.656Z" fill="white"/>
</g>
<defs>
<clipPath id="clip0_112_295">
<rect width="198.655" height="42" fill="white"/>
</clipPath>
</defs>
</svg>
