<svg width="89" height="112" viewBox="0 0 89 112" fill="none" xmlns="http://www.w3.org/2000/svg">
<path d="M49.5164 29.3261L66.8708 19.3067C68.3407 22.4631 69.1673 25.9775 69.1673 29.6831C69.1673 33.1682 68.4365 36.4847 67.1267 39.4934L49.5164 29.3261ZM44.5004 54.3497C36.1749 54.3497 28.8051 50.1997 24.336 43.8639L44.5004 32.2222L64.6647 43.8639C60.1957 50.1997 52.8258 54.3497 44.5004 54.3497ZM21.8741 39.4934C20.5643 36.4847 19.8335 33.1682 19.8335 29.6831C19.8335 25.9775 20.66 22.4631 22.1299 19.3067L39.4843 29.3261L21.8741 39.4934ZM41.9924 5.14301V24.982L24.6962 14.996C28.7255 9.5769 34.9217 5.86012 41.9924 5.14301ZM47.0084 5.14301C54.0791 5.86012 60.2753 9.5769 64.3046 14.996L47.0084 24.982V5.14301ZM44.5004 8.7738e-05C28.1331 8.7738e-05 14.8174 13.3158 14.8174 29.6831C14.8174 46.05 28.1331 59.3657 44.5004 59.3657C60.8677 59.3657 74.1834 46.05 74.1834 29.6831C74.1834 13.3158 60.8677 8.7738e-05 44.5004 8.7738e-05Z" fill="white"/>
<path d="M38.6426 44.3335C38.6426 47.5689 41.265 50.1914 44.5001 50.1914C47.7352 50.1914 50.358 47.5689 50.358 44.3335C50.358 41.0985 47.7352 38.476 44.5001 38.476C41.265 38.476 38.6426 41.0985 38.6426 44.3335Z" fill="white"/>
<path d="M17.3253 82.2542H13.3228V78.8109H17.2961C19.0617 78.8109 19.8272 79.5466 19.8272 80.5474C19.8272 81.5481 19.0618 82.2542 17.3253 82.2542ZM13.3228 71.6889H16.8544C18.5614 71.6889 19.2384 72.4539 19.2384 73.4251C19.2384 74.3082 18.5614 75.0732 16.8544 75.0732H13.3228V71.6889ZM21.122 76.6331C23.0939 76.3094 24.4183 74.8966 24.4183 72.8364C24.4183 69.717 22.2698 67.7155 17.5019 67.7155H8.4668V86.2568H18.1202C22.4464 86.2568 24.9774 84.3733 24.9774 81.1656C24.9774 78.5167 23.2998 77.0747 21.122 76.6331Z" fill="white"/>
<path d="M36.112 82.1958C33.3751 82.1958 31.6386 80.1356 31.6386 76.9866C31.6386 73.8374 33.3751 71.7772 36.112 71.7772C38.8489 71.7772 40.5857 73.8374 40.5857 76.9866C40.5857 80.1356 38.8489 82.1958 36.112 82.1958ZM36.112 67.3629C30.7263 67.3629 26.4883 71.2771 26.4883 76.9866C26.4883 82.6962 30.7263 86.6104 36.112 86.6104C41.4978 86.6104 45.7358 82.6962 45.7358 76.9866C45.7358 71.2771 41.4978 67.3629 36.112 67.3629Z" fill="white"/>
<path d="M53.1586 67.716H48.1553V86.2573H62.3408V82.1369H53.1586V67.716Z" fill="white"/>
<path d="M71.2034 82.3135H69.2318V71.6598H71.2034C74.441 71.6598 76.3541 73.6021 76.3541 76.9569C76.3541 80.3709 74.441 82.3135 71.2034 82.3135ZM71.5567 67.716H64.2285V86.2573H71.5567C77.7078 86.2573 81.5042 82.7846 81.5042 76.9865C81.5042 71.1886 77.7078 67.716 71.5567 67.716Z" fill="white"/>
<path d="M10.7128 99.5106L7.21063 98.8924C6.06282 98.6865 5.35656 98.3628 5.35656 97.5094C5.35656 96.4792 6.29823 95.8317 7.9464 95.8317C9.85953 95.8317 11.2427 96.7149 11.3899 98.6277L15.981 98.5394C15.8927 94.4194 13.126 91.9175 8.00521 91.9175C3.38466 91.9175 0.441561 94.1836 0.441561 97.9507C0.441561 101.188 2.56057 102.895 5.59197 103.454L8.97663 104.043C10.389 104.308 11.4782 104.484 11.4782 105.573C11.4782 106.604 10.3595 107.221 8.6234 107.221C6.56318 107.221 4.76788 106.427 4.59128 104.102L0 104.249C0 108.722 3.59056 111.165 8.6234 111.165C12.9497 111.165 16.3635 109.193 16.3635 105.25C16.3635 102.218 14.5975 100.188 10.7128 99.5106Z" fill="white"/>
<path d="M26.95 101.011H24.0069V96.2728H26.95C29.1868 96.2728 30.0402 97.0969 30.0402 98.6567C30.0402 100.216 29.1868 101.011 26.95 101.011ZM27.1854 92.2703H19.0332V110.812H24.0069V105.014H27.1854C32.0416 105.014 34.8668 102.748 34.8668 98.6272C34.8668 94.5363 32.0416 92.2703 27.1854 92.2703Z" fill="white"/>
<path d="M36.7539 110.812H41.7572V92.2703H36.7539V110.812Z" fill="white"/>
<path d="M53.5502 100.805H49.9892V96.2728H53.5502C55.6692 96.2728 56.729 97.0674 56.729 98.5684C56.729 100.275 55.6692 100.805 53.5502 100.805ZM57.6706 102.924C59.9367 102.63 61.6141 100.864 61.6141 98.1564C61.6141 94.5363 59.2305 92.2703 54.4334 92.2703H45.0742V110.812H49.9892V104.661H53.3151C54.9925 104.661 55.9049 105.131 56.052 107.251C56.1991 109.164 56.4345 110.311 56.817 110.812H61.8791C61.2611 110.135 61.1728 109.31 60.9082 106.544C60.702 104.395 59.5834 103.307 57.6706 102.924Z" fill="white"/>
<path d="M64.3691 110.812H69.3724V92.2703H64.3691V110.812Z" fill="white"/>
<path d="M71.2236 92.2703V96.3904H77.5809V110.812H82.5547V96.3904H89V92.2703H71.2236Z" fill="white"/>
</svg>
