<svg width="199" height="42" viewBox="0 0 199 42" fill="none" xmlns="http://www.w3.org/2000/svg">
<g clip-path="url(#clip0_101_344)">
<path d="M24.5496 20.7468L36.8278 13.6581C37.8679 15.8913 38.4525 18.3777 38.4525 20.9994C38.4525 23.4652 37.9357 25.8116 37.0088 27.9403L24.5496 20.7468ZM21.0008 38.4512C15.1104 38.4512 9.89635 35.515 6.73445 31.0324L21.0008 22.7959L35.267 31.0324C32.1052 35.515 26.891 38.4512 21.0008 38.4512ZM4.99258 27.9403C4.0659 25.8116 3.54884 23.4652 3.54884 20.9994C3.54884 18.3777 4.13368 15.8913 5.17365 13.6581L17.4519 20.7468L4.99258 27.9403ZM19.2263 3.63741V17.6735L6.98924 10.6083C9.84001 6.77424 14.2238 4.14465 19.2263 3.63741ZM22.7752 3.63741C27.7777 4.14465 32.1616 6.77424 35.0123 10.6083L22.7752 17.6735V3.63741ZM21.0008 -0.00132751C9.42086 -0.00132751 0 9.41953 0 20.9994C0 32.5791 9.42086 42 21.0008 42C32.5807 42 42.0016 32.5791 42.0016 20.9994C42.0016 9.41953 32.5807 -0.00132751 21.0008 -0.00132751Z" fill="#201C1C"/>
<path d="M16.8564 31.3645C16.8564 33.6537 18.7118 35.5092 21.0006 35.5092C23.2895 35.5092 25.1451 33.6537 25.1451 31.3645C25.1451 29.0758 23.2895 27.2205 21.0006 27.2205C18.7118 27.2205 16.8564 29.0758 16.8564 31.3645Z" fill="#201C1C"/>
<path d="M58.8934 16.905H55.4681V13.9583H58.8683C60.3794 13.9583 61.0343 14.588 61.0343 15.4444C61.0343 16.3008 60.3794 16.905 58.8934 16.905ZM55.4681 7.8635H58.4905C59.9512 7.8635 60.5306 8.51817 60.5306 9.34928C60.5306 10.1051 59.9512 10.7597 58.4905 10.7597H55.4681V7.8635ZM62.1425 12.0946C63.83 11.8176 64.9634 10.6086 64.9634 8.84551C64.9634 6.176 63.1248 4.46321 59.0445 4.46321H51.3125V20.3304H59.5736C63.2759 20.3304 65.4419 18.7186 65.4419 15.9734C65.4419 13.7066 64.0062 12.4725 62.1425 12.0946Z" fill="#201C1C"/>
<path d="M74.9702 16.8549C72.628 16.8549 71.1419 15.0918 71.1419 12.397C71.1419 9.7019 72.628 7.93882 74.9702 7.93882C77.3123 7.93882 78.7987 9.7019 78.7987 12.397C78.7987 15.0918 77.3123 16.8549 74.9702 16.8549ZM74.9702 4.16116C70.3611 4.16116 66.7344 7.51089 66.7344 12.397C66.7344 17.283 70.3611 20.6328 74.9702 20.6328C79.5792 20.6328 83.206 17.283 83.206 12.397C83.206 7.51089 79.5792 4.16116 74.9702 4.16116Z" fill="#201C1C"/>
<path d="M89.5581 4.46319H85.2764V20.3305H97.416V16.8043H89.5581V4.46319Z" fill="#201C1C"/>
<path d="M105 16.9555H103.313V7.8382H105C107.771 7.8382 109.408 9.50043 109.408 12.3714C109.408 15.2929 107.771 16.9555 105 16.9555ZM105.303 4.46319H99.0312V20.3305H105.303C110.566 20.3305 113.815 17.3587 113.815 12.3967C113.815 7.43502 110.566 4.46319 105.303 4.46319Z" fill="#201C1C"/>
<path d="M131.612 10.6592L128.615 10.1301C127.633 9.95392 127.028 9.67689 127.028 8.94664C127.028 8.06496 127.834 7.51089 129.245 7.51089C130.882 7.51089 132.066 8.26668 132.191 9.90362L136.121 9.82805C136.045 6.30214 133.677 4.16116 129.295 4.16116C125.341 4.16116 122.822 6.10042 122.822 9.32427C122.822 12.0946 124.636 13.5557 127.23 14.0339L130.126 14.5379C131.335 14.7647 132.267 14.9156 132.267 15.8475C132.267 16.7293 131.31 17.2577 129.824 17.2577C128.061 17.2577 126.525 16.5778 126.373 14.5882L122.444 14.7141C122.444 18.5424 125.517 20.6328 129.824 20.6328C133.526 20.6328 136.448 18.9452 136.448 15.5705C136.448 12.9763 134.937 11.2385 131.612 10.6592Z" fill="#201C1C"/>
<path d="M145.507 11.9437H142.989V7.88878H145.507C147.422 7.88878 148.152 8.59402 148.152 9.92891C148.152 11.2635 147.422 11.9437 145.507 11.9437ZM145.709 4.46348H138.732V20.3306H142.989V15.3688H145.709C149.865 15.3688 152.282 13.4295 152.282 9.90336C152.282 6.40274 149.865 4.46348 145.709 4.46348Z" fill="#201C1C"/>
<path d="M153.897 20.3306H158.179V4.46348H153.897V20.3306Z" fill="#201C1C"/>
<path d="M168.271 11.7676H165.224V7.88878H168.271C170.084 7.88878 170.991 8.56874 170.991 9.85333C170.991 11.3141 170.084 11.7676 168.271 11.7676ZM171.797 13.5807C173.737 13.3287 175.172 11.8176 175.172 9.50071C175.172 6.40274 173.132 4.46348 169.027 4.46348H161.018V20.3306H165.224V15.0667H168.07C169.505 15.0667 170.286 15.4695 170.412 17.2831C170.538 18.9204 170.739 19.9024 171.067 20.3306H175.399C174.87 19.7513 174.794 19.046 174.568 16.6786C174.391 14.84 173.434 13.908 171.797 13.5807Z" fill="#201C1C"/>
<path d="M177.53 20.3306H181.812V4.46348H177.53V20.3306Z" fill="#201C1C"/>
<path d="M183.396 4.46348V7.98938H188.836V20.3306H193.092V7.98938H198.608V4.46348H183.396Z" fill="#201C1C"/>
<path d="M51.2646 34.5038V33.5164H53.754V34.4181C53.754 35.1334 54.0829 35.4911 54.7554 35.4911C55.4279 35.4911 55.7428 35.1334 55.7428 34.4181V27.3216H58.4181V34.4894C58.4181 36.521 57.0734 37.7944 54.8414 37.7944C52.6094 37.7944 51.2646 36.521 51.2646 34.5038Z" fill="#211D1D"/>
<path d="M60.1914 27.3216H62.8668V37.5083H60.1914V27.3216Z" fill="#211D1D"/>
<path d="M64.6553 34.0173V27.3216H67.3306V34.0316C67.3306 35.1046 67.8887 35.6483 69.033 35.6483C70.1777 35.6483 70.7213 35.1046 70.7213 34.0316V27.3216H73.397V34.0173C73.397 36.4926 71.8375 37.8375 69.0189 37.8375C66.2148 37.8375 64.6553 36.4926 64.6553 34.0173Z" fill="#211D1D"/>
<path d="M78.6602 34.5038V33.5164H81.1498V34.4181C81.1498 35.1334 81.4787 35.4911 82.1512 35.4911C82.8234 35.4911 83.1383 35.1334 83.1383 34.4181V27.3216H85.8139V34.4894C85.8139 36.521 84.4689 37.7944 82.2369 37.7944C80.0052 37.7944 78.6602 36.521 78.6602 34.5038Z" fill="#211D1D"/>
<path d="M87.5869 27.3216H90.2623V37.5083H87.5869V27.3216Z" fill="#211D1D"/>
<path d="M100.105 29.6395H97.1291V37.5083H94.4535V29.6395H91.4492V27.3216H100.105V29.6395Z" fill="#211D1D"/>
<path d="M100.834 34.232H103.481C103.553 35.2051 104.196 35.6915 105.37 35.6915C106.371 35.6915 106.929 35.3339 106.929 34.6754C106.929 34.0889 106.486 33.8456 105.713 33.6597L103.71 33.1878C102.093 32.8014 101.077 31.8856 101.077 30.283C101.077 28.5521 102.265 27.0786 105.126 27.0786C107.716 27.0786 109.204 28.2802 109.318 30.3403H106.729C106.614 29.568 106.056 29.1386 105.112 29.1386C104.253 29.1386 103.753 29.5107 103.753 30.0544C103.753 30.4834 104.053 30.7695 104.726 30.9414L106.814 31.4278C108.617 31.8427 109.648 32.8301 109.648 34.4894C109.648 36.5926 108.002 37.8375 105.312 37.8375C102.608 37.8375 100.948 36.5638 100.834 34.232Z" fill="#211D1D"/>
<path d="M111.076 34.0173V27.3216H113.752V34.0316C113.752 35.1046 114.31 35.6483 115.454 35.6483C116.599 35.6483 117.143 35.1046 117.143 34.0316V27.3216H119.818V34.0173C119.818 36.4926 118.259 37.8375 115.44 37.8375C112.636 37.8375 111.076 36.4926 111.076 34.0173Z" fill="#211D1D"/>
<path d="M130.833 33.8028L130.375 32.4149L129.746 30.283L129.131 32.4149L128.673 33.8028H130.833ZM131.463 35.7631H128.029L127.457 37.5083H124.652L128.372 27.3216H131.191L134.853 37.5083H132.035L131.463 35.7631Z" fill="#211D1D"/>
<path d="M135.353 32.4437C135.353 29.1386 137.441 27.0786 140.274 27.0786C142.835 27.0786 144.609 28.5521 144.852 30.9414H142.248C142.076 29.8828 141.404 29.2819 140.346 29.2819C138.872 29.2819 138.028 30.4549 138.028 32.4293C138.028 34.4894 138.872 35.6483 140.346 35.6483C141.505 35.6483 142.105 34.933 142.248 33.86H144.852C144.666 36.3637 142.864 37.8375 140.26 37.8375C137.427 37.8375 135.353 35.7488 135.353 32.4437Z" fill="#211D1D"/>
<path d="M151.733 33.8028L151.276 32.4149L150.646 30.283L150.031 32.4149L149.573 33.8028H151.733ZM152.363 35.7631H148.929L148.357 37.5083H145.553L149.272 27.3216H152.091L155.754 37.5083H152.935L152.363 35.7631Z" fill="#211D1D"/>
<path d="M163.407 32.4149C163.407 30.4977 162.649 29.525 160.818 29.525H159.601V35.2622H160.961C162.649 35.2622 163.407 34.3037 163.407 32.4149ZM166.082 32.4149C166.082 35.4627 164.609 37.5083 161.418 37.5083H156.926V27.3216H161.218C164.437 27.3216 166.082 29.1959 166.082 32.4149Z" fill="#211D1D"/>
<path d="M175.681 35.2479V37.5083H167.483V27.3216H175.538V29.5395H170.159V31.2132H174.88V33.3876H170.159V35.2479H175.681Z" fill="#211D1D"/>
<path d="M187.769 27.3216V37.5083H185.322V33.4592L185.523 29.7111L184.893 32.5153L183.591 37.5083H181.359L180.043 32.4724L179.428 29.7253L179.628 33.4592V37.5083H177.139V27.3216H180.758L182.018 32.1433L182.447 34.2177L182.89 32.1433L184.12 27.3216H187.769Z" fill="#211D1D"/>
<path d="M198.656 27.3216L195.108 33.674V37.5083H192.432V33.674L188.87 27.3216H191.846L193.263 30.2545L193.763 31.5423L194.278 30.2545L195.738 27.3216H198.656Z" fill="#211D1D"/>
</g>
<defs>
<clipPath id="clip0_101_344">
<rect width="198.655" height="42" fill="white"/>
</clipPath>
</defs>
</svg>
